<?xml version="1.0" encoding="utf-8"?>
<!-- Generator: Adobe Illustrator 16.0.3, SVG Export Plug-In . SVG Version: 6.00 Build 0)  -->
<!DOCTYPE svg PUBLIC "-//W3C//DTD SVG 1.1//EN" "http://www.w3.org/Graphics/SVG/1.1/DTD/svg11.dtd">
<svg version="1.1" id="Layer_1" xmlns="http://www.w3.org/2000/svg" xmlns:xlink="http://www.w3.org/1999/xlink" x="0px" y="0px"
	 width="69.5px" height="27.25px" viewBox="0 0 69.5 27.25" enable-background="new 0 0 69.5 27.25" xml:space="preserve">

	 <defs>
		<style type="text/css">
		<![CDATA[
			@font-face {
				font-family: 'PrestijDemoLight';
				src: url('/public/fonts/prestij-demo.light.otf');
			}
			#container{ cursor:pointer; }
		]]>
		</style>
	</defs>

<g id="container">
	<g>
		<g>
			<g>
				<path fill="#BE3A26" d="M40.102,10.342c1.262-2.462,0.285-4.393-2.439-5.302c0.459,0.987,0.889,1.989,1.807,2.778
					c-0.248-0.106-0.498-0.212-0.697-0.208c0.02,0.738,0.146,1.507,0.406,2.101c-0.027,0.341-0.193,0.045-0.193,0.045
					c-0.379-2.764-4.91-3.248-6.094-1.641c0.627,0.082,1.264,0.182,1.998,0.511c0.467-0.135,1.199-0.278,1.615-0.139
					c-0.256,0.106-0.531,0.179-0.695,0.503c0.873,0.461,1.508,1.131,2.379,0.979c0.078,0.118,0.195,0.351,0.195,0.351
					c0.064,0.201,0.055,0.299,0.055,0.299c-0.309,0.281-0.732,0.317-1.066,0.341c-2.639,0.188-4.467,3.944-3.588,6.529
					c0.398-0.766,0.764-1.608,1.232-2.21c0.059-0.516,0.004-1.254,0.412-1.753c-0.02,0.33-0.006,0.646,0.223,0.87
					c0.553-0.794,1.424-1.146,1.514-2.382c0.289,0.129-0.102,0.552,0.15,0.697c0.23-0.246,0.473-0.469,0.781-0.54
					c0,0,0.154,0.13,0.283,0.36c0.027,0.051,0.09,0.088,0.164,0.118c-0.059,2.127-0.463,9.542-3.113,11.252
					c-0.73-0.301-1.555-0.498-2.484-0.552c0.496-9.729-6.44-14.68-8.734-16.043c0.073-0.077,0.141-0.149,0.197-0.206
					c0.296-0.124,0.738,0.271,0.86,0.05c0.088-0.313-0.355-0.485-0.251-0.716c0.866,1.171,2.015,1.533,3.196,1.808
					c-0.086-0.387-0.272-0.807-0.284-1.164c0.5,0.605,1.032,1.111,1.432,2.004c0.941,0.359,1.651,1.379,2.596,1.724
					c-1.379-4.44-4.496-6.825-8.388-5.253c0,0-0.11-0.165-0.137-0.509c-0.035-0.44,0.303-0.626,0.19-0.539
					c1.145,0.08,1.753-0.644,2.792-1.346c-0.15-0.29-0.984-0.335-0.74-0.573c0.535-0.167,1.298,0.216,1.983,0.066
					c0.864-0.188,1.632-0.767,2.373-0.864c-2.281-1.733-7.44-0.545-7.609,2.923c-1.214-3.294-3.855-4.04-7.046-2.274
					c1.316,0.418,2.621,0.878,4.147,0.696c-0.313,0.142-0.625,0.283-0.793,0.476c0.706,0.616,1.533,1.157,2.312,1.423
					c0.293,0.319-0.125,0.219-0.125,0.219c-2.907-2.017-7.252,1.798-6.767,4.285c0.615-0.517,1.254-1.025,2.193-1.429
					c0.276-0.552,0.771-1.36,1.26-1.63c-0.123,0.333-0.291,0.65-0.128,1.085c1.178-0.42,2.351-0.438,2.957-1.381
					c0.178,0.026,0.495,0.119,0.495,0.119c0.245,0.111,0.328,0.204,0.328,0.204c-0.003,0.53-0.334,0.957-0.599,1.291
					c-2.093,2.626-0.153,7.559,3.015,8.958c-0.371-1.029-0.846-2.094-1.005-3.049c-0.431-0.499-1.167-1.081-1.282-1.892
					c0.291,0.304,0.598,0.561,1.002,0.539c-0.264-1.2,0.157-2.313-0.922-3.46c0.368-0.156,0.429,0.569,0.78,0.461
					c-0.032-0.428-0.032-0.847,0.167-1.195c0,0,0.254-0.03,0.579,0.046c0.15,0.035,0.356-0.085,0.572-0.262
					c1.871,1.065,9,5.769,8.509,15.366l0.44,0.021c-0.568-0.006-1.088,0.05-1.566,0.151l0.205-0.08
					c-0.755-1.901-2.883-3.374-4.144-4.11c0.023-0.067,0.042-0.108,0.042-0.108c0.245-0.045,0.492,0.041,0.738,0.147
					c0.136-0.185-0.28-0.368-0.111-0.553c0.452,0.871,1.195,0.853,1.847,1.254c0.096-0.232,0.007-0.466-0.111-0.7
					c0.453,0.233,0.645,0.787,0.85,1.144c0.529,0.29,1.059,0.789,1.588,1.22c-0.173-2.154-2.677-4.311-4.655-3.619
					c-0.251,0.088-0.57,0.195-0.883,0.087c0,0-0.037-0.067-0.052-0.234c0,0,0.01-0.205,0.032-0.315
					c0.679-0.164,0.93-0.851,1.42-1.459c-0.221-0.184-0.444-0.15-0.665-0.146c0.26-0.232,0.837-0.356,1.218-0.405
					c0.431-0.471,0.864-0.742,1.292-0.998c-1.363-0.798-4.503,0.976-3.914,3.104c0,0-0.028,0.267-0.155,0.027
					c0.003-0.514-0.145-1.112-0.361-1.652c-0.148,0.059-0.295,0.213-0.444,0.368c0.421-0.862,0.419-1.725,0.443-2.586
					c-1.696,1.517-1.799,3.226-0.111,4.617c-2.076-0.614-3.837,2.179-3.286,3.878c0.21-0.414,0.708-0.749,0.997-1.22
					c0.229-0.372,0.161-0.899,0.369-1.181c0.19-0.093,0.046,0.406,0.185,0.555c0.627-0.467,1.179-0.677,1.367-1.368
					c-0.073,0.051,0.104-0.111,0.357,0c0.198,0.087,0.271,0.185,0.271,0.185c-1.726,1.969-0.963,4.295,1.367,6.021
					c-0.008-0.628-0.462-1.256-0.479-1.885c-0.444-0.418-0.632-0.837-0.887-1.255c0.21,0.08,0.418,0.275,0.628,0.406
					c0.081-0.752,0.104-1.502-0.406-2.253c0.156-0.015,0.166,0.282,0.368,0.295c0.157-0.026,0.015-0.367,0.148-0.517
					c0.209-0.098,0.624-0.262,0.827-0.437c1.211,0.721,3.191,2.109,3.888,3.83c-4.396,1.115,9.121,2.536,5.164,0.572
					c2.631-2.083,3.033-9.14,3.094-11.366c0.285,0.024,0.6,0.02,0.793,0.024c0.23,0.106,0.236,0.574,0.432,0.526
					c0.229-0.116,0.092-0.466,0.279-0.527c-0.215,1.127,0.186,1.986,0.658,2.816c0.178-0.254,0.322-0.586,0.523-0.785
					c-0.086,0.614-0.096,1.194-0.4,1.9c0.295,0.736,0.082,1.692,0.387,2.425c1.838-3.169,1.561-6.247-1.428-7.668
					c0,0,0.035-0.151,0.221-0.351c0.238-0.255,0.525-0.157,0.414-0.178c0.564,0.706,1.309,0.675,2.271,0.901
					c0.086-0.242-0.332-0.75-0.064-0.735c0.383,0.223,0.568,0.87,1.02,1.187c0.572,0.4,1.314,0.538,1.768,0.915
					C45.643,10.946,42.201,8.59,40.102,10.342z"/>
			</g>
		</g>
	</g>
	<text transform="matrix(1 0 0 1 1.2769 25.3516)" fill="#FFFFFF" font-family="'PrestijDemoLight'" font-size="12" xml:space="preserve">Zec       Tour</text>
</g>
</svg>
