<?xml version="1.0" encoding="utf-8"?>
<!-- Generator: Adobe Illustrator 16.0.3, SVG Export Plug-In . SVG Version: 6.00 Build 0)  -->
<!DOCTYPE svg PUBLIC "-//W3C//DTD SVG 1.1//EN" "http://www.w3.org/Graphics/SVG/1.1/DTD/svg11.dtd">
<svg version="1.1" id="Layer_1" xmlns="http://www.w3.org/2000/svg" xmlns:xlink="http://www.w3.org/1999/xlink" x="0px" y="0px"
	 width="69.5px" height="27.25px" viewBox="0 0 69.5 27.25" enable-background="new 0 0 69.5 27.25" xml:space="preserve">
<g id="container">
	<g>
		<g>
			<g>
				<path fill="#FFFFFF" d="M40.102,10.342c1.262-2.462,0.285-4.393-2.438-5.302c0.459,0.987,0.889,1.989,1.808,2.778
					c-0.248-0.106-0.498-0.212-0.697-0.208c0.02,0.738,0.146,1.507,0.406,2.101c-0.027,0.341-0.193,0.045-0.193,0.045
					c-0.379-2.764-4.91-3.248-6.094-1.641c0.627,0.082,1.264,0.182,1.998,0.511c0.467-0.135,1.199-0.278,1.615-0.139
					c-0.256,0.106-0.53,0.179-0.694,0.503c0.873,0.461,1.508,1.131,2.379,0.979c0.078,0.118,0.194,0.351,0.194,0.351
					c0.064,0.201,0.056,0.299,0.056,0.299c-0.31,0.281-0.732,0.317-1.066,0.341c-2.639,0.188-4.467,3.944-3.588,6.529
					c0.398-0.767,0.764-1.608,1.232-2.21c0.059-0.516,0.004-1.254,0.413-1.753c-0.021,0.33-0.007,0.646,0.223,0.871
					c0.553-0.794,1.424-1.146,1.514-2.382c0.289,0.129-0.102,0.552,0.15,0.697c0.229-0.246,0.473-0.469,0.781-0.54
					c0,0,0.153,0.13,0.282,0.36c0.027,0.051,0.091,0.088,0.164,0.118c-0.06,2.126-0.463,9.542-3.112,11.251
					c-0.73-0.301-1.556-0.498-2.485-0.551c0.496-9.729-6.44-14.681-8.734-16.043c0.073-0.077,0.141-0.149,0.197-0.206
					c0.296-0.124,0.738,0.271,0.86,0.05c0.088-0.313-0.355-0.485-0.251-0.716c0.866,1.171,2.015,1.533,3.196,1.808
					c-0.086-0.387-0.272-0.807-0.284-1.164c0.5,0.605,1.032,1.111,1.432,2.004c0.941,0.359,1.651,1.379,2.596,1.724
					c-1.379-4.44-4.496-6.825-8.388-5.253c0,0-0.11-0.165-0.137-0.509c-0.035-0.44,0.303-0.626,0.19-0.539
					c1.145,0.08,1.753-0.644,2.792-1.346c-0.15-0.29-0.984-0.335-0.74-0.573c0.535-0.167,1.298,0.216,1.983,0.066
					c0.864-0.188,1.632-0.767,2.373-0.864c-2.281-1.733-7.44-0.545-7.609,2.923c-1.214-3.294-3.855-4.04-7.046-2.274
					c1.316,0.418,2.621,0.878,4.147,0.696c-0.313,0.142-0.625,0.283-0.793,0.476c0.706,0.616,1.533,1.157,2.312,1.423
					c0.293,0.319-0.125,0.219-0.125,0.219c-2.907-2.017-7.252,1.798-6.767,4.285c0.615-0.517,1.254-1.025,2.193-1.429
					c0.276-0.552,0.771-1.36,1.26-1.63c-0.123,0.333-0.291,0.65-0.128,1.085c1.178-0.42,2.351-0.438,2.957-1.381
					C20.611,6.207,20.928,6.3,20.928,6.3c0.245,0.111,0.328,0.204,0.328,0.204c-0.003,0.53-0.334,0.957-0.599,1.291
					c-2.093,2.626-0.153,7.559,3.015,8.958c-0.371-1.028-0.846-2.094-1.005-3.049c-0.431-0.499-1.167-1.081-1.282-1.892
					c0.291,0.304,0.598,0.561,1.002,0.539c-0.264-1.2,0.157-2.313-0.922-3.46c0.368-0.156,0.429,0.569,0.78,0.461
					c-0.032-0.428-0.032-0.847,0.167-1.195c0,0,0.254-0.03,0.579,0.046c0.15,0.035,0.356-0.085,0.572-0.262
					c1.871,1.065,9,5.769,8.509,15.366l0.44,0.021c-0.568-0.006-1.088,0.05-1.566,0.15l0.205-0.08
					c-0.755-1.9-2.883-3.373-4.144-4.109c0.023-0.066,0.042-0.107,0.042-0.107c0.245-0.046,0.492,0.041,0.738,0.146
					c0.136-0.186-0.28-0.368-0.111-0.553c0.452,0.871,1.195,0.853,1.847,1.254c0.096-0.232,0.007-0.467-0.111-0.7
					c0.453,0.233,0.645,0.787,0.85,1.144c0.529,0.291,1.059,0.789,1.588,1.221c-0.173-2.154-2.677-4.312-4.655-3.619
					c-0.251,0.088-0.57,0.195-0.883,0.087c0,0-0.037-0.067-0.052-0.234c0,0,0.01-0.204,0.032-0.315
					c0.679-0.163,0.93-0.851,1.42-1.459c-0.221-0.184-0.444-0.149-0.665-0.146c0.26-0.231,0.837-0.356,1.218-0.405
					c0.431-0.471,0.864-0.742,1.292-0.998c-1.363-0.797-4.503,0.977-3.914,3.104c0,0-0.028,0.267-0.155,0.026
					c0.003-0.514-0.145-1.111-0.361-1.651c-0.148,0.06-0.295,0.213-0.444,0.368c0.421-0.862,0.419-1.725,0.443-2.586
					c-1.696,1.517-1.799,3.226-0.111,4.617c-2.076-0.614-3.837,2.179-3.286,3.877c0.21-0.414,0.708-0.748,0.997-1.219
					c0.229-0.373,0.161-0.899,0.369-1.182c0.19-0.093,0.046,0.406,0.185,0.555c0.627-0.467,1.179-0.677,1.367-1.367
					c-0.073,0.051,0.104-0.111,0.357,0c0.198,0.086,0.271,0.185,0.271,0.185c-1.726,1.969-0.963,4.295,1.367,6.021
					c-0.008-0.627-0.462-1.256-0.479-1.885c-0.444-0.418-0.632-0.837-0.887-1.255c0.21,0.08,0.418,0.274,0.628,0.406
					c0.081-0.752,0.104-1.502-0.406-2.253c0.156-0.016,0.166,0.281,0.368,0.295c0.157-0.026,0.015-0.367,0.148-0.518
					c0.209-0.098,0.624-0.262,0.827-0.437c1.211,0.721,3.191,2.108,3.888,3.83c-4.396,1.114,9.121,2.536,5.164,0.571
					c2.631-2.082,3.033-9.14,3.094-11.365c0.285,0.024,0.601,0.02,0.793,0.024c0.23,0.106,0.236,0.574,0.433,0.526
					c0.229-0.116,0.093-0.466,0.279-0.527c-0.216,1.127,0.186,1.986,0.657,2.816c0.179-0.254,0.322-0.586,0.523-0.785
					c-0.086,0.614-0.096,1.194-0.4,1.899c0.295,0.736,0.082,1.693,0.388,2.426c1.838-3.169,1.562-6.247-1.429-7.668
					c0,0,0.035-0.151,0.222-0.351c0.237-0.255,0.524-0.157,0.414-0.178c0.563,0.706,1.309,0.675,2.271,0.901
					c0.086-0.242-0.332-0.75-0.063-0.735c0.383,0.223,0.567,0.87,1.02,1.187c0.572,0.4,1.314,0.538,1.769,0.915
					C45.643,10.946,42.201,8.59,40.102,10.342z"/>
			</g>
		</g>
	</g>
	<g enable-background="new    ">
		<path fill="#FFFFFF" d="M2.039,17.014v-0.469h4.734c0.41,0,0.727,0.104,0.949,0.311c0.098,0.086,0.17,0.188,0.217,0.305
			c0.047,0.109,0.07,0.225,0.07,0.346c0,0.281-0.105,0.535-0.316,0.762l-5.221,5.672c-0.129,0.141-0.213,0.281-0.252,0.422
			c-0.031,0.098-0.033,0.178-0.006,0.24c0.023,0.07,0.082,0.129,0.176,0.176c0.152,0.07,0.373,0.105,0.662,0.105h5.01v0.469h-5.01
			c-0.359,0-0.646-0.053-0.861-0.158c-0.207-0.102-0.346-0.244-0.416-0.428c-0.059-0.164-0.059-0.342,0-0.533
			c0.063-0.211,0.182-0.412,0.357-0.604l5.221-5.672c0.129-0.141,0.193-0.291,0.193-0.451c0-0.063-0.012-0.119-0.035-0.17
			c-0.023-0.055-0.057-0.102-0.1-0.141c-0.133-0.121-0.346-0.182-0.639-0.182H2.039z"/>
		<path fill="#FFFFFF" d="M14.127,23.84l0.363,0.281l-0.135,0.182c-0.289,0.379-0.645,0.672-1.066,0.879
			c-0.418,0.211-0.863,0.316-1.336,0.316c-0.832,0-1.541-0.295-2.127-0.885c-0.59-0.586-0.885-1.295-0.885-2.127
			s0.295-1.543,0.885-2.133c0.586-0.586,1.295-0.879,2.127-0.879c0.457,0,0.891,0.098,1.301,0.293
			c0.414,0.199,0.764,0.477,1.049,0.832c0.098,0.121,0.086,0.23-0.035,0.328l-3.932,3.521c0.469,0.387,1.008,0.58,1.617,0.58
			c0.402,0,0.779-0.088,1.131-0.264c0.359-0.176,0.66-0.424,0.902-0.744L14.127,23.84z M10.002,24.127l3.797-3.398
			c-0.215-0.227-0.463-0.408-0.744-0.545c-0.344-0.164-0.711-0.246-1.102-0.246c-0.703,0-1.303,0.248-1.799,0.744
			c-0.5,0.5-0.75,1.102-0.75,1.805C9.404,23.104,9.604,23.65,10.002,24.127z"/>
		<path fill="#FFFFFF" d="M19.787,19.773l-0.176,0.428l-0.217-0.088c-0.305-0.121-0.621-0.182-0.949-0.182
			c-0.516,0-0.99,0.145-1.424,0.434c-0.438,0.293-0.752,0.678-0.943,1.154c-0.125,0.305-0.188,0.625-0.188,0.961
			s0.063,0.654,0.188,0.955c0.191,0.48,0.506,0.865,0.943,1.154c0.434,0.293,0.908,0.439,1.424,0.439
			c0.328,0,0.645-0.063,0.949-0.188l0.217-0.088l0.176,0.428L19.57,25.27c-0.363,0.148-0.738,0.223-1.125,0.223
			c-0.609,0-1.17-0.172-1.682-0.516c-0.516-0.344-0.889-0.799-1.119-1.365c-0.145-0.359-0.217-0.736-0.217-1.131
			c0-0.398,0.072-0.777,0.217-1.137c0.23-0.563,0.604-1.018,1.119-1.365c0.512-0.344,1.072-0.516,1.682-0.516
			c0.387,0,0.762,0.074,1.125,0.223L19.787,19.773z"/>
		<path fill="#FFFFFF" d="M44.004,17.008v-0.463h5.754v0.463h-2.643v8.344h-0.463v-8.344H44.004z"/>
		<path fill="#FFFFFF" d="M52.793,19.475c0.832,0,1.543,0.293,2.133,0.879c0.586,0.59,0.879,1.301,0.879,2.133
			s-0.293,1.541-0.879,2.127c-0.59,0.59-1.301,0.885-2.133,0.885s-1.541-0.295-2.127-0.885c-0.59-0.586-0.885-1.295-0.885-2.127
			s0.295-1.543,0.885-2.133C51.252,19.768,51.961,19.475,52.793,19.475z M50.994,20.682c-0.5,0.5-0.75,1.102-0.75,1.805
			s0.25,1.303,0.75,1.799c0.496,0.5,1.096,0.75,1.799,0.75s1.305-0.25,1.805-0.75c0.496-0.496,0.744-1.096,0.744-1.799
			s-0.248-1.305-0.744-1.805c-0.5-0.496-1.102-0.744-1.805-0.744S51.49,20.186,50.994,20.682z"/>
		<path fill="#FFFFFF" d="M62.924,25.352h-0.463v-0.668c-0.188,0.18-0.395,0.332-0.621,0.457c-0.426,0.238-0.883,0.357-1.371,0.357
			c-0.805,0-1.49-0.295-2.057-0.885s-0.85-1.299-0.85-2.127v-2.865h0.463v2.865c0,0.703,0.24,1.305,0.721,1.805
			c0.477,0.496,1.051,0.744,1.723,0.744c0.41,0,0.793-0.1,1.148-0.299c0.336-0.188,0.617-0.443,0.844-0.768v-4.348h0.463V25.352z"/>
		<path fill="#FFFFFF" d="M64.682,19.621h0.463v0.902c0.188-0.301,0.395-0.525,0.621-0.674c0.426-0.25,0.883-0.375,1.371-0.375
			c0.246,0,0.488,0.031,0.727,0.094s0.467,0.156,0.686,0.281l-0.234,0.404c-0.18-0.105-0.369-0.186-0.568-0.24
			c-0.199-0.051-0.402-0.076-0.609-0.076c-0.406,0-0.789,0.105-1.148,0.316c-0.336,0.211-0.617,0.539-0.844,0.984v4.113h-0.463
			V19.621z"/>
	</g>
</g>
</svg>
